<svg xmlns="http://www.w3.org/2000/svg" width="25" height="23" viewBox="0 0 25 23" fill="none">
  <path d="M21.5 1.5C21.8978 1.5 22.2794 1.65804 22.5607 1.93934C22.842 2.22064 23 2.60218 23 3V15C23 15.3978 22.842 15.7794 22.5607 16.0607C22.2794 16.342 21.8978 16.5 21.5 16.5H7.121C6.32542 16.5002 5.56248 16.8164 5 17.379L2 20.379V3C2 2.60218 2.15804 2.22064 2.43934 1.93934C2.72064 1.65804 3.10218 1.5 3.5 1.5H21.5ZM3.5 0C2.70435 0 1.94129 0.316071 1.37868 0.87868C0.816071 1.44129 0.5 2.20435 0.5 3L0.5 22.1895C0.500032 22.3379 0.544089 22.483 0.626596 22.6063C0.709103 22.7297 0.82635 22.8258 0.963499 22.8825C1.10065 22.9392 1.25153 22.9539 1.39705 22.9248C1.54258 22.8957 1.6762 22.8241 1.781 22.719L6.0605 18.4395C6.34174 18.1582 6.72321 18.0001 7.121 18H21.5C22.2956 18 23.0587 17.6839 23.6213 17.1213C24.1839 16.5587 24.5 15.7957 24.5 15V3C24.5 2.20435 24.1839 1.44129 23.6213 0.87868C23.0587 0.316071 22.2956 0 21.5 0L3.5 0Z" fill="white"/>
</svg>