<svg xmlns="http://www.w3.org/2000/svg" width="15" height="4" viewBox="0 0 15 4" fill="none">
  <path d="M7.49219 0.515625C6.67188 0.515625 6.00781 1.17969 6.00781 2C6.00781 2.82031 6.67188 3.48438 7.49219 3.48438C8.3125 3.48438 8.97656 2.82031 8.97656 2C8.97656 1.17969 8.3125 0.515625 7.49219 0.515625ZM1.48438 0.515625C0.664062 0.515625 0 1.17969 0 2C0 2.82031 0.664062 3.48438 1.48438 3.48438C2.30469 3.48438 2.96875 2.82031 2.96875 2C2.96875 1.17969 2.30469 0.515625 1.48438 0.515625ZM13.5156 0.515625C12.6953 0.515625 12.0312 1.17969 12.0312 2C12.0312 2.82031 12.6953 3.48438 13.5156 3.48438C14.3359 3.48438 15 2.82031 15 2C15 1.17969 14.3359 0.515625 13.5156 0.515625Z" fill="#6B7280"/>
</svg>