<svg xmlns="http://www.w3.org/2000/svg" width="25" height="24" viewBox="0 0 25 24" fill="none">
  <g clip-path="url(#clip0_1_626)">
    <path d="M9.43994 12C11.3699 12 12.9399 10.43 12.9399 8.5C12.9399 6.57 11.3699 5 9.43994 5C7.50994 5 5.93994 6.57 5.93994 8.5C5.93994 10.43 7.50994 12 9.43994 12ZM9.43994 7C10.2699 7 10.9399 7.67 10.9399 8.5C10.9399 9.33 10.2699 10 9.43994 10C8.60994 10 7.93994 9.33 7.93994 8.5C7.93994 7.67 8.60994 7 9.43994 7ZM9.48994 17H5.20994C6.19994 16.5 7.90994 16 9.43994 16C9.54994 16 9.66994 16.01 9.77994 16.01C10.1199 15.28 10.7099 14.68 11.4199 14.2C10.6899 14.07 9.99994 14 9.43994 14C7.09994 14 2.43994 15.17 2.43994 17.5V19H9.43994V17.5C9.43994 17.33 9.45994 17.16 9.48994 17ZM16.9399 14.5C15.0999 14.5 11.4399 15.51 11.4399 17.5V19H22.4399V17.5C22.4399 15.51 18.7799 14.5 16.9399 14.5ZM18.1499 12.68C18.9099 12.25 19.4399 11.44 19.4399 10.5C19.4399 9.83696 19.1765 9.20107 18.7077 8.73223C18.2389 8.26339 17.603 8 16.9399 8C16.2769 8 15.641 8.26339 15.1722 8.73223C14.7033 9.20107 14.4399 9.83696 14.4399 10.5C14.4399 11.44 14.9699 12.25 15.7299 12.68C16.0899 12.88 16.4999 13 16.9399 13C17.3799 13 17.7899 12.88 18.1499 12.68Z" fill="#03C9D7"/>
  </g>
  <defs>
    <clipPath id="clip0_1_626">
      <rect width="24" height="24" fill="white" transform="translate(0.439941)"/>
    </clipPath>
  </defs>
</svg>