<svg xmlns="http://www.w3.org/2000/svg" width="25" height="24" viewBox="0 0 25 24" fill="none">
  <path d="M13.169 1.66949C12.9899 1.59772 12.7901 1.59772 12.611 1.66949L3.65901 5.24999L7.26501 6.69149L16.496 2.99999L13.169 1.66949ZM18.515 3.80849L9.28401 7.49999L12.89 8.94149L22.121 5.24999L18.515 3.80849ZM23.39 6.35849L13.64 10.2585V22.1415L23.39 18.2415V6.35849ZM12.14 22.143V10.257L2.39001 6.35849V18.243L12.14 22.143ZM12.0545 0.275988C12.5909 0.061487 13.1892 0.061487 13.7255 0.275988L24.419 4.55399C24.558 4.60971 24.6772 4.70578 24.7612 4.82982C24.8451 4.95387 24.89 5.10021 24.89 5.24999V18.243C24.8898 18.5427 24.7998 18.8355 24.6317 19.0836C24.4635 19.3317 24.2249 19.5238 23.9465 19.635L13.169 23.946C12.9899 24.0178 12.7901 24.0178 12.611 23.946L1.83501 19.635C1.55639 19.524 1.31743 19.3321 1.14898 19.084C0.980527 18.8358 0.890324 18.5429 0.890015 18.243V5.24999C0.89005 5.10021 0.93493 4.95387 1.01888 4.82982C1.10282 4.70578 1.22198 4.60971 1.36101 4.55399L12.0545 0.275988Z" fill="#FFF4E5"/>
</svg>