<svg xmlns="http://www.w3.org/2000/svg" width="19" height="19" viewBox="0 0 19 19" fill="none">
  <path d="M1.25 1.99999V6.99999H1.832M1.832 6.99999C2.49585 5.35812 3.68568 3.9829 5.21503 3.08985C6.74438 2.1968 8.5268 1.8364 10.283 2.06513C12.0391 2.29386 13.6698 3.09878 14.9194 4.35377C16.169 5.60875 16.9668 7.24285 17.188 8.99999M1.832 6.99999H6.25M17.25 18V13H16.669M16.669 13C16.0042 14.6409 14.814 16.015 13.2848 16.9073C11.7556 17.7995 9.97374 18.1595 8.2181 17.9309C6.46246 17.7022 4.8322 16.8979 3.58253 15.6437C2.33287 14.3896 1.53435 12.7564 1.312 11M16.669 13H12.25" stroke="#00C292" stroke-width="2" stroke-linecap="round" stroke-linejoin="round"/>
</svg>