<svg xmlns="http://www.w3.org/2000/svg" width="21" height="20" viewBox="0 0 21 20" fill="none">
  <g clip-path="url(#clip0_1_1128)">
    <path d="M7.76998 18.3333C8.23022 18.3333 8.60331 17.9602 8.60331 17.5C8.60331 17.0398 8.23022 16.6667 7.76998 16.6667C7.30974 16.6667 6.93665 17.0398 6.93665 17.5C6.93665 17.9602 7.30974 18.3333 7.76998 18.3333Z" stroke="#03C9D7" stroke-width="1.66667" stroke-linecap="round" stroke-linejoin="round"/>
    <path d="M16.9367 18.3333C17.397 18.3333 17.7701 17.9602 17.7701 17.5C17.7701 17.0398 17.397 16.6667 16.9367 16.6667C16.4765 16.6667 16.1034 17.0398 16.1034 17.5C16.1034 17.9602 16.4765 18.3333 16.9367 18.3333Z" stroke="#03C9D7" stroke-width="1.66667" stroke-linecap="round" stroke-linejoin="round"/>
    <path d="M1.10339 0.833336H4.43673L6.67006 11.9917C6.74626 12.3753 6.95498 12.72 7.25968 12.9653C7.56438 13.2105 7.94564 13.3408 8.33673 13.3333H16.4367C16.8278 13.3408 17.2091 13.2105 17.5138 12.9653C17.8185 12.72 18.0272 12.3753 18.1034 11.9917L19.4367 5H5.27006" stroke="#03C9D7" stroke-width="1.66667" stroke-linecap="round" stroke-linejoin="round"/>
  </g>
  <defs>
    <clipPath id="clip0_1_1128">
      <rect width="20" height="20" fill="white" transform="translate(0.27002)"/>
    </clipPath>
  </defs>
</svg>