<svg xmlns="http://www.w3.org/2000/svg" width="16" height="14" viewBox="0 0 16 14" fill="none">
  <path d="M15.6562 0.125H0.34375C0.257812 0.125 0.1875 0.195312 0.1875 0.28125V1.53125C0.1875 1.61719 0.257812 1.6875 0.34375 1.6875H15.6562C15.7422 1.6875 15.8125 1.61719 15.8125 1.53125V0.28125C15.8125 0.195312 15.7422 0.125 15.6562 0.125ZM15.6562 12.3125H0.34375C0.257812 12.3125 0.1875 12.3828 0.1875 12.4688V13.7188C0.1875 13.8047 0.257812 13.875 0.34375 13.875H15.6562C15.7422 13.875 15.8125 13.8047 15.8125 13.7188V12.4688C15.8125 12.3828 15.7422 12.3125 15.6562 12.3125ZM15.6562 6.21875H0.34375C0.257812 6.21875 0.1875 6.28906 0.1875 6.375V7.625C0.1875 7.71094 0.257812 7.78125 0.34375 7.78125H15.6562C15.7422 7.78125 15.8125 7.71094 15.8125 7.625V6.375C15.8125 6.28906 15.7422 6.21875 15.6562 6.21875Z" fill="#03C9D7"/>
</svg>