<svg xmlns="http://www.w3.org/2000/svg" width="21" height="20" viewBox="0 0 21 20" fill="none">
  <path d="M17.77 1.25C18.1015 1.25 18.4195 1.3817 18.6539 1.61612C18.8883 1.85054 19.02 2.16848 19.02 2.5V12.5C19.02 12.8315 18.8883 13.1495 18.6539 13.3839C18.4195 13.6183 18.1015 13.75 17.77 13.75H5.78752C5.12453 13.7501 4.48875 14.0136 4.02002 14.4825L1.52002 16.9825V2.5C1.52002 2.16848 1.65172 1.85054 1.88614 1.61612C2.12056 1.3817 2.4385 1.25 2.77002 1.25H17.77ZM2.77002 0C2.10698 0 1.47109 0.263392 1.00225 0.732233C0.533412 1.20107 0.27002 1.83696 0.27002 2.5L0.27002 18.4913C0.270046 18.6149 0.30676 18.7358 0.375516 18.8386C0.444272 18.9414 0.541978 19.0215 0.656269 19.0687C0.770559 19.116 0.896296 19.1282 1.01756 19.104C1.13883 19.0797 1.25018 19.0201 1.33752 18.9325L4.90377 15.3663C5.13814 15.1318 5.45603 15.0001 5.78752 15H17.77C18.4331 15 19.0689 14.7366 19.5378 14.2678C20.0066 13.7989 20.27 13.163 20.27 12.5V2.5C20.27 1.83696 20.0066 1.20107 19.5378 0.732233C19.0689 0.263392 18.4331 0 17.77 0L2.77002 0Z" fill="#03C9D7"/>
</svg>