<svg xmlns="http://www.w3.org/2000/svg" width="21" height="20" viewBox="0 0 21 20" fill="none">
  <g clip-path="url(#clip0_1_1137)">
    <path d="M16.9366 14.1667H18.6033V15.8333H1.93665V14.1667H3.60331V8.33333C3.60331 6.56522 4.30569 4.86953 5.55593 3.61929C6.80618 2.36904 8.50187 1.66666 10.27 1.66666C12.0381 1.66666 13.7338 2.36904 14.984 3.61929C16.2343 4.86953 16.9366 6.56522 16.9366 8.33333V14.1667ZM15.27 14.1667V8.33333C15.27 7.00725 14.7432 5.73548 13.8055 4.7978C12.8678 3.86012 11.5961 3.33333 10.27 3.33333C8.9439 3.33333 7.67213 3.86012 6.73445 4.7978C5.79676 5.73548 5.26998 7.00725 5.26998 8.33333V14.1667H15.27ZM7.76998 17.5H12.77V19.1667H7.76998V17.5Z" fill="#03C9D7"/>
  </g>
  <defs>
    <clipPath id="clip0_1_1137">
      <rect width="20" height="20" fill="white" transform="translate(0.27002)"/>
    </clipPath>
  </defs>
</svg>