<svg xmlns="http://www.w3.org/2000/svg" width="16" height="16" viewBox="0 0 13 12" fill="none">
  <path d="M12.4798 10.5874H1.72983V0.837402C1.72983 0.768652 1.67358 0.712402 1.60483 0.712402H0.729828C0.661078 0.712402 0.604828 0.768652 0.604828 0.837402V11.5874C0.604828 11.6562 0.661078 11.7124 0.729828 11.7124H12.4798C12.5486 11.7124 12.6048 11.6562 12.6048 11.5874V10.7124C12.6048 10.6437 12.5486 10.5874 12.4798 10.5874ZM2.85483 9.5874H11.2298C11.2986 9.5874 11.3548 9.53115 11.3548 9.4624V2.6499C11.3548 2.5374 11.2189 2.48271 11.1408 2.56084L7.85483 5.84678L5.89545 3.90928C5.87196 3.88601 5.84023 3.87296 5.80717 3.87296C5.77411 3.87296 5.74238 3.88601 5.71889 3.90928L2.76577 6.87178C2.7543 6.88327 2.74521 6.89692 2.73905 6.91193C2.73288 6.92695 2.72975 6.94304 2.72983 6.95928V9.4624C2.72983 9.53115 2.78608 9.5874 2.85483 9.5874Z" fill="#374151"/>
</svg>