<svg xmlns="http://www.w3.org/2000/svg" width="16" height="16" viewBox="0 0 13 13" fill="none">
  <path d="M11.3333 8.33201C11.272 8.37534 10 9.72068 10 10.6653C10 11.6613 10.6327 12.2973 11.3333 12.332C11.9373 12.3613 12.6667 11.738 12.6667 10.6653C12.6667 9.66534 11.3947 8.37534 11.3333 8.33201ZM0.276001 7.66534C0.276001 8.02134 0.414668 8.35601 0.666668 8.60801L4.39067 12.332C4.64267 12.584 4.97733 12.7227 5.33333 12.7227C5.68933 12.7227 6.024 12.584 6.276 12.332L10.9427 7.66534L10.4713 7.19401L5.33333 2.05601L3.80467 0.527344L2.862 1.47001L4.39067 2.99868L0.666668 6.72268C0.414668 6.97468 0.276001 7.30934 0.276001 7.66534ZM5.33333 3.94134L9.05734 7.66534L5.33333 11.3893H5.334L5.33333 12.056V11.3893L1.60933 7.66534L5.33333 3.94134Z" fill="#374151"/>
</svg>