<svg xmlns="http://www.w3.org/2000/svg" width="16" height="16" viewBox="0 0 16 16" fill="none">
<g clip-path="url(#clip0_1_36)">
<path d="M12.6666 4.66666H16V5.99999H12.6666V4.66666ZM11.3333 7.99999H16V9.33332H11.3333V7.99999ZM13.3333 11.3333H16V12.6667H13.3333V11.3333ZM1.33331 14.6667C1.33331 13.2522 1.89522 11.8956 2.89541 10.8954C3.8956 9.89523 5.25216 9.33332 6.66665 9.33332C8.08113 9.33332 9.43769 9.89523 10.4379 10.8954C11.4381 11.8956 12 13.2522 12 14.6667H10.6666C10.6666 13.6058 10.2452 12.5884 9.49507 11.8382C8.74493 11.0881 7.72751 10.6667 6.66665 10.6667C5.60578 10.6667 4.58836 11.0881 3.83822 11.8382C3.08807 12.5884 2.66665 13.6058 2.66665 14.6667H1.33331ZM6.66665 8.66666C4.45665 8.66666 2.66665 6.87666 2.66665 4.66666C2.66665 2.45666 4.45665 0.666656 6.66665 0.666656C8.87665 0.666656 10.6666 2.45666 10.6666 4.66666C10.6666 6.87666 8.87665 8.66666 6.66665 8.66666ZM6.66665 7.33332C8.13998 7.33332 9.33331 6.13999 9.33331 4.66666C9.33331 3.19332 8.13998 1.99999 6.66665 1.99999C5.19331 1.99999 3.99998 3.19332 3.99998 4.66666C3.99998 6.13999 5.19331 7.33332 6.66665 7.33332Z" fill="#374151"/>
</g>
<defs>
<clipPath id="clip0_1_36">
<rect width="16" height="16" fill="white"/>
</clipPath>
</defs>
</svg>