<svg width="16" height="16" viewBox="0 0 16 16" fill="none" xmlns="http://www.w3.org/2000/svg">
<g id="SVG">
<path id="Vector" d="M4 1.33333L2 3.99999V13.3333C2 13.687 2.14048 14.0261 2.39052 14.2761C2.64057 14.5262 2.97971 14.6667 3.33333 14.6667H12.6667C13.0203 14.6667 13.3594 14.5262 13.6095 14.2761C13.8595 14.0261 14 13.687 14 13.3333V3.99999L12 1.33333H4Z" stroke="#374151" stroke-width="1.33333" stroke-linecap="round" stroke-linejoin="round"/>
<path id="Vector_2" d="M2 4H14" stroke="#374151" stroke-width="1.33333" stroke-linecap="round" stroke-linejoin="round"/>
<path id="Vector_3" d="M10.6666 6.66667C10.6666 7.37392 10.3857 8.05219 9.8856 8.55229C9.3855 9.05239 8.70722 9.33334 7.99998 9.33334C7.29274 9.33334 6.61446 9.05239 6.11436 8.55229C5.61426 8.05219 5.33331 7.37392 5.33331 6.66667" stroke="#374151" stroke-width="1.33333" stroke-linecap="round" stroke-linejoin="round"/>
</g>
</svg>
