<svg xmlns="http://www.w3.org/2000/svg" width="16" height="16" viewBox="0 0 16 16" fill="none">
  <path d="M7.47525 10.748C6.91962 11.0638 6.27706 11.2442 5.59228 11.2442C4.90763 11.2442 4.26519 11.0638 3.70959 10.7482C2.23575 11.1978 1.33259 12.6875 1 14H10.1847C9.85228 12.6875 8.94922 11.1974 7.47525 10.748ZM5.59228 3.7511C3.76481 3.7511 2.28334 5.23216 2.28334 7.05916C2.28334 8.88616 3.76481 10.3672 5.59228 10.3672C7.41975 10.3672 8.90122 8.88613 8.90122 7.05916C8.90122 5.23216 7.41972 3.7511 5.59228 3.7511ZM5.59228 9.57885C4.54006 9.57885 3.64088 8.87532 3.27988 8H7.90469C7.54362 8.87535 6.6445 9.57885 5.59228 9.57885Z" fill="#374151"/>
  <path d="M10.0813 12H15C14.6676 10.6875 13.7645 9.44717 12.2906 8.99776C11.7349 9.31351 11.0923 9.49379 10.4076 9.49379C9.94434 9.49379 9.50056 9.41086 9.08981 9.25973C8.85715 9.64942 8.56084 10.0595 8.21562 10.3505C9.03893 10.6673 9.66084 11.375 10.0813 12ZM9.57956 6.25001H12.72C12.3589 7.12501 11.4597 7.82167 10.4076 7.82167C10.1302 7.82167 9.86368 7.76879 9.61459 7.68073C9.57335 7.94859 9.50509 8.21157 9.41084 8.46567C9.7254 8.56486 10.0602 8.61761 10.4076 8.61761C12.235 8.61761 13.7165 7.13604 13.7165 5.30911C13.7165 3.48207 12.235 2.00079 10.4076 2.00079C9.23599 2.00079 8.20671 2.61651 7.61871 3.53486C8.61274 4.10573 9.34256 5.09376 9.57956 6.25001Z" fill="#374151"/>
</svg>