<svg xmlns="http://www.w3.org/2000/svg" width="16" height="16" viewBox="0 0 13 11" fill="none">
  <path d="M12.7298 8.88436H0.479828C0.411078 8.88436 0.354828 8.94061 0.354828 9.00936V9.88436C0.354828 9.95311 0.411078 10.0094 0.479828 10.0094H12.7298C12.7986 10.0094 12.8548 9.95311 12.8548 9.88436V9.00936C12.8548 8.94061 12.7986 8.88436 12.7298 8.88436ZM1.19389 6.92811L1.8142 7.5453C1.86264 7.59373 1.94233 7.59373 1.99077 7.5453L5.65795 3.89061L7.18295 5.41092C7.27691 5.50401 7.40382 5.55624 7.53608 5.55624C7.66834 5.55624 7.79525 5.50401 7.8892 5.41092L12.0173 1.29842C12.0658 1.24998 12.0658 1.1703 12.0173 1.12186L11.397 0.503109C11.3735 0.479847 11.3418 0.466797 11.3087 0.466797C11.2757 0.466797 11.2439 0.479847 11.2205 0.503109L7.53764 4.17498L6.01108 2.65467C5.91712 2.56158 5.79021 2.50936 5.65795 2.50936C5.52569 2.50936 5.39878 2.56158 5.30483 2.65467L1.19389 6.75155C1.1822 6.76309 1.17292 6.77683 1.16659 6.79199C1.16026 6.80714 1.15699 6.8234 1.15699 6.83983C1.15699 6.85625 1.16026 6.87251 1.16659 6.88767C1.17292 6.90282 1.1822 6.91657 1.19389 6.92811Z" fill="#374151"/>
</svg>