<svg width="16" height="16" viewBox="0 0 15 13" fill="none" xmlns="http://www.w3.org/2000/svg">
<path id="Vector" d="M14.4203 8.96719H5.11561L5.5828 8.01562L13.3453 8.00156C13.6078 8.00156 13.8328 7.81406 13.8797 7.55469L14.9547 1.5375C14.9828 1.37969 14.9406 1.21719 14.8375 1.09375C14.7865 1.033 14.7229 0.984065 14.6512 0.950339C14.5794 0.916613 14.5012 0.898903 14.4219 0.898438L4.54686 0.865625L4.46249 0.46875C4.40936 0.215625 4.18124 0.03125 3.92186 0.03125H1.5078C1.36152 0.03125 1.22122 0.0893608 1.11779 0.192799C1.01435 0.296237 0.956238 0.436529 0.956238 0.582813C0.956238 0.729096 1.01435 0.869388 1.11779 0.972826C1.22122 1.07626 1.36152 1.13438 1.5078 1.13438H3.47499L3.84374 2.8875L4.75155 7.28281L3.5828 9.19063C3.52211 9.27254 3.48555 9.36981 3.47726 9.47143C3.46898 9.57305 3.4893 9.67496 3.53593 9.76562C3.62968 9.95156 3.81874 10.0688 4.02811 10.0688H5.00936C4.80017 10.3466 4.68718 10.685 4.68749 11.0328C4.68749 11.9172 5.40624 12.6359 6.29061 12.6359C7.17499 12.6359 7.89374 11.9172 7.89374 11.0328C7.89374 10.6844 7.77811 10.3453 7.57186 10.0688H10.0891C9.87986 10.3466 9.76687 10.685 9.76717 11.0328C9.76717 11.9172 10.4859 12.6359 11.3703 12.6359C12.2547 12.6359 12.9734 11.9172 12.9734 11.0328C12.9734 10.6844 12.8578 10.3453 12.6516 10.0688H14.4219C14.725 10.0688 14.9734 9.82187 14.9734 9.51719C14.9725 9.37106 14.9139 9.23122 14.8102 9.12818C14.7066 9.02514 14.5664 8.96727 14.4203 8.96719ZM4.77655 1.95312L13.7734 1.98281L12.8922 6.91719L5.82499 6.92969L4.77655 1.95312ZM6.29061 11.5266C6.01874 11.5266 5.79686 11.3047 5.79686 11.0328C5.79686 10.7609 6.01874 10.5391 6.29061 10.5391C6.56249 10.5391 6.78436 10.7609 6.78436 11.0328C6.78436 11.1638 6.73234 11.2894 6.63975 11.3819C6.54715 11.4745 6.42156 11.5266 6.29061 11.5266ZM11.3703 11.5266C11.0984 11.5266 10.8765 11.3047 10.8765 11.0328C10.8765 10.7609 11.0984 10.5391 11.3703 10.5391C11.6422 10.5391 11.864 10.7609 11.864 11.0328C11.864 11.1638 11.812 11.2894 11.7194 11.3819C11.6268 11.4745 11.5013 11.5266 11.3703 11.5266Z" fill="#374151"/>
</svg>
