<svg xmlns="http://www.w3.org/2000/svg" width="16" height="16" viewBox="0 0 17 17" fill="none">
  <g clip-path="url(#clip0_7_416)">
    <path d="M14.7448 10.8058C14.3207 11.8088 13.6574 12.6926 12.8128 13.38C11.9681 14.0674 10.968 14.5374 9.89979 14.749C8.83157 14.9605 7.72778 14.9072 6.68493 14.5937C5.64208 14.2801 4.69192 13.7158 3.91751 12.9502C3.14311 12.1846 2.56804 11.241 2.24259 10.2018C1.91714 9.16255 1.85121 8.05945 2.05056 6.98888C2.24992 5.91831 2.7085 4.91287 3.3862 4.06047C4.0639 3.20808 4.94009 2.53467 5.93817 2.09912" stroke="#374151" stroke-width="1.33333" stroke-linecap="round" stroke-linejoin="round"/>
    <path d="M15.2715 8.21257C15.2715 7.33709 15.0991 6.47018 14.764 5.66134C14.429 4.8525 13.9379 4.11758 13.3189 3.49852C12.6998 2.87946 11.9649 2.3884 11.1561 2.05337C10.3472 1.71834 9.48031 1.5459 8.60483 1.5459V8.21257H15.2715Z" stroke="#374151" stroke-width="1.33333" stroke-linecap="round" stroke-linejoin="round"/>
  </g>
  <defs>
    <clipPath id="clip0_7_416">
      <rect width="16" height="16" fill="white" transform="translate(0.604828 0.212402)"/>
    </clipPath>
  </defs>
</svg>