<svg xmlns="http://www.w3.org/2000/svg" width="16" height="12" viewBox="0 0 16 12" fill="none">
  <path d="M7.60482 0.44043L0.0648193 11.2123H15.1454L7.60482 0.44043ZM7.60482 1.42168L8.26107 2.35918L7.60482 3.29668L6.94857 2.35918L7.60482 1.42168ZM6.60482 2.8498L7.26107 3.7873L6.60482 4.7248L5.94857 3.7873L6.60482 2.8498ZM8.60482 2.8498L9.26107 3.7873L8.60482 4.7248L7.94857 3.7873L8.60482 2.8498ZM5.89544 3.8623L5.60482 4.28105L6.26107 5.21855L5.60482 6.15293L4.94857 5.21543L5.89544 3.8623ZM9.60482 4.27793L10.2611 5.21543L9.60482 6.15293L8.94857 5.21543L9.60482 4.27793ZM7.60482 4.28105L8.26107 5.21543L7.60482 6.15293L6.94857 5.21543L7.60482 4.28105ZM4.83607 5.3748L4.60482 5.70918L5.26107 6.64668L4.60482 7.58105L3.94857 6.64355L4.83607 5.3748ZM10.6048 5.70605L11.2611 6.64355L10.6048 7.58105L9.94857 6.64355L10.6048 5.70605ZM6.60482 5.70918L7.26107 6.64668L6.60482 7.58105L5.94857 6.64668L6.60482 5.70918ZM8.60482 5.70918L9.26107 6.64668L8.60482 7.58105L7.94857 6.64668L8.60482 5.70918ZM3.78294 6.88418L3.60482 7.1373L4.26107 8.0748L3.60482 9.00918L2.94857 8.07168L3.78294 6.88418ZM11.4673 6.94043L12.2611 8.07168L11.6048 9.00918L10.9486 8.0748L11.6048 7.1373L11.4673 6.94043ZM5.60482 7.1373L6.26107 8.0748L5.60482 9.00918L4.94857 8.0748L5.60482 7.1373ZM7.60482 7.1373L8.26107 8.0748L7.60482 9.00918L6.94857 8.0748L7.60482 7.1373ZM9.60482 7.1373L10.2611 8.0748L9.60482 9.00918L8.94857 8.0748L9.60482 7.1373ZM2.68326 8.45293L2.60451 8.56543L3.26107 9.50293L2.45763 10.6498H1.14513L2.68326 8.45293ZM12.5329 8.46543L14.0642 10.6498H12.7517L11.9486 9.50293L12.6048 8.56543L12.5329 8.46543ZM4.60482 8.56543L5.26107 9.50293L4.60482 10.4373L3.94857 9.50293L4.60482 8.56543ZM6.60482 8.56543L7.26107 9.50293L6.60482 10.4373L5.94857 9.50293L6.60482 8.56543ZM8.60482 8.56543L9.26107 9.50293L8.60482 10.4373L7.94857 9.50293L8.60482 8.56543ZM10.6048 8.56543L11.2611 9.50293L10.6048 10.4373L9.94857 9.50293L10.6048 8.56543ZM3.60482 9.99668L4.06107 10.6498H3.14857L3.60482 9.99668ZM5.60482 9.99668L6.06107 10.6498H5.14857L5.60482 9.99668ZM7.60482 9.99668L8.06107 10.6498H7.14857L7.60482 9.99668ZM9.60482 9.99668L10.0611 10.6498H9.14857L9.60482 9.99668ZM11.6048 9.99668L12.0611 10.6498H11.1486L11.6048 9.99668Z" fill="#374151"/>
</svg>