<svg xmlns="http://www.w3.org/2000/svg" width="16" height="16" viewBox="0 0 13 12" fill="none">
  <path d="M12.4798 10.5874H1.72983V0.837402C1.72983 0.768652 1.67358 0.712402 1.60483 0.712402H0.729828C0.661078 0.712402 0.604828 0.768652 0.604828 0.837402V11.5874C0.604828 11.6562 0.661078 11.7124 0.729828 11.7124H12.4798C12.5486 11.7124 12.6048 11.6562 12.6048 11.5874V10.7124C12.6048 10.6437 12.5486 10.5874 12.4798 10.5874ZM3.10483 9.3374H3.97983C4.04858 9.3374 4.10483 9.28115 4.10483 9.2124V6.9624C4.10483 6.89365 4.04858 6.8374 3.97983 6.8374H3.10483C3.03608 6.8374 2.97983 6.89365 2.97983 6.9624V9.2124C2.97983 9.28115 3.03608 9.3374 3.10483 9.3374ZM5.47983 9.3374H6.35483C6.42358 9.3374 6.47983 9.28115 6.47983 9.2124V4.2124C6.47983 4.14365 6.42358 4.0874 6.35483 4.0874H5.47983C5.41108 4.0874 5.35483 4.14365 5.35483 4.2124V9.2124C5.35483 9.28115 5.41108 9.3374 5.47983 9.3374ZM7.85483 9.3374H8.72983C8.79858 9.3374 8.85483 9.28115 8.85483 9.2124V5.43115C8.85483 5.3624 8.79858 5.30615 8.72983 5.30615H7.85483C7.78608 5.30615 7.72983 5.3624 7.72983 5.43115V9.2124C7.72983 9.28115 7.78608 9.3374 7.85483 9.3374ZM10.2298 9.3374H11.1048C11.1736 9.3374 11.2298 9.28115 11.2298 9.2124V2.9624C11.2298 2.89365 11.1736 2.8374 11.1048 2.8374H10.2298C10.1611 2.8374 10.1048 2.89365 10.1048 2.9624V9.2124C10.1048 9.28115 10.1611 9.3374 10.2298 9.3374Z" fill="#374151"/>
</svg>