<svg xmlns="http://www.w3.org/2000/svg" width="13" height="22" viewBox="0 0 13 22" fill="none">
  <path d="M0 15.1715C0.222 17.672 2.2695 19.4465 5.3865 19.676V21.5H6.951V19.676C10.356 19.4075 12.468 17.519 12.468 14.726C12.468 12.341 11.0475 10.961 8.034 10.184L6.951 9.9035V4.2005C8.634 4.3655 9.7695 5.2715 10.056 6.6245H12.261C12.012 4.2245 9.951 2.5025 6.951 2.312V0.5H5.3865V2.3495C2.478 2.6945 0.4815 4.5575 0.4815 7.0835C0.4815 9.2645 1.9305 10.808 4.473 11.459L5.388 11.702V17.7485C3.6645 17.4935 2.478 16.5485 2.1915 15.1715H0ZM5.0865 9.4175C3.522 9.023 2.6865 8.18 2.6865 6.9935C2.6865 5.5775 3.7425 4.532 5.3865 4.2515V9.494L5.0865 9.4175ZM7.473 12.2255C9.4035 12.71 10.251 13.514 10.251 14.879C10.251 16.5245 9.012 17.621 6.951 17.7875V12.095L7.473 12.224V12.2255Z" fill="#03C9D7"/>
</svg>