<svg xmlns="http://www.w3.org/2000/svg" width="22" height="24" viewBox="0 0 22 24" fill="none">
  <path d="M7.00701 2.385C5.57839 2.77872 4.15948 3.20685 2.75151 3.669C2.62294 3.71065 2.50866 3.78756 2.42167 3.89099C2.33469 3.99442 2.2785 4.1202 2.25951 4.254C1.42851 10.4895 3.34851 15.039 5.63901 18.036C6.60878 19.3176 7.76512 20.4466 9.06951 21.3855C9.58851 21.7515 10.0475 22.0155 10.409 22.185C10.589 22.2705 10.736 22.3275 10.8485 22.362C10.8977 22.3793 10.9484 22.3918 11 22.3995C11.051 22.3912 11.1011 22.3787 11.15 22.362C11.264 22.3275 11.411 22.2705 11.591 22.185C11.951 22.0155 12.4115 21.75 12.9305 21.3855C14.2349 20.4466 15.3912 19.3176 16.361 18.036C18.6515 15.0405 20.5715 10.4895 19.7405 4.254C19.7217 4.12014 19.6656 3.99427 19.5786 3.89082C19.4915 3.78736 19.3772 3.71049 19.2485 3.669C18.272 3.3495 16.6235 2.829 14.993 2.3865C13.328 1.935 11.7965 1.6005 11 1.6005C10.205 1.6005 8.67201 1.9335 7.00701 2.385ZM6.60801 0.84C8.23551 0.3975 9.96501 0 11 0C12.035 0 13.7645 0.3975 15.392 0.84C17.057 1.29 18.7355 1.8225 19.7225 2.145C20.1352 2.28128 20.501 2.5312 20.778 2.86605C21.055 3.20091 21.232 3.60711 21.2885 4.038C22.1825 10.7535 20.108 15.7305 17.591 19.023C16.5237 20.4315 15.251 21.6718 13.8155 22.7025C13.3191 23.0592 12.7932 23.3728 12.2435 23.64C11.8235 23.838 11.372 24 11 24C10.628 24 10.178 23.838 9.75651 23.64C9.20678 23.3728 8.68087 23.0592 8.18451 22.7025C6.74905 21.6717 5.47638 20.4314 4.40901 19.023C1.89201 15.7305 -0.182492 10.7535 0.711508 4.038C0.768039 3.60711 0.944973 3.20091 1.22198 2.86605C1.49899 2.5312 1.86485 2.28128 2.27751 2.145C3.7103 1.67521 5.15422 1.24009 6.60801 0.84Z" fill="#00C292"/>
</svg>